<svg width="23" height="22" viewBox="0 0 23 22" fill="none" xmlns="http://www.w3.org/2000/svg">
<path fill-rule="evenodd" clip-rule="evenodd" d="M21.9995 3.39965H5.24186C4.81217 1.21874 3.03206 0 1.00641 0C0.331196 0 0.331196 1.02631 1.00641 1.02631C2.60237 1.02631 3.95281 2.11676 4.25972 3.78452L5.91707 13.8552C6.1626 15.3305 7.39027 16.421 8.8021 16.421H18.8075C19.4828 16.421 19.4828 15.3305 18.8075 15.3305H8.8021C7.88133 15.3946 7.02197 14.689 6.89921 13.7269L6.77644 13.0213H17.8255C19.1758 13.0213 20.4035 12.0592 20.7105 10.648L22.4905 4.16938C22.5519 3.78452 22.3064 3.4638 21.9995 3.39965ZM19.7897 10.4556C19.5442 11.3536 18.7462 11.995 17.8255 11.995H6.59229C6.4163 10.8916 6.24031 9.8311 6.06853 8.79613C5.82092 7.30425 5.58207 5.86505 5.36463 4.42596H21.3243C21.0905 5.37233 20.8569 6.27512 20.6166 7.20346C20.3519 8.22566 20.0792 9.27906 19.7897 10.4556ZM9.0471 16.9968C7.69665 16.9968 6.65313 18.0872 6.65313 19.4984C6.65313 20.8454 7.69665 22 9.0471 22C10.3361 22 11.3796 20.8454 11.3796 19.4984C11.3796 18.0872 10.3361 16.9968 9.0471 16.9968ZM9.0471 20.9096C8.24909 20.9096 7.63527 20.2681 7.63527 19.4984C7.63527 18.6645 8.24909 18.0231 9.0471 18.0231C9.78366 18.0231 10.3975 18.6645 10.3975 19.4984C10.3975 20.2681 9.78366 20.9096 9.0471 20.9096ZM13.6536 19.4984C13.6536 18.0872 14.6971 16.9968 15.9862 16.9968C17.3366 16.9968 18.3801 18.0872 18.3801 19.4984C18.3801 20.8454 17.3366 22 15.9862 22C14.6971 22 13.6536 20.8454 13.6536 19.4984ZM14.6357 19.4984C14.6357 20.2681 15.2496 20.9096 15.9862 20.9096C16.7842 20.9096 17.398 20.2681 17.398 19.4984C17.398 18.6645 16.7842 18.0231 15.9862 18.0231C15.2496 18.0231 14.6357 18.6645 14.6357 19.4984Z" fill="white"/>
</svg>
