<?xml version="1.0" encoding="UTF-8"?>
<svg id="Layer_1" xmlns="http://www.w3.org/2000/svg" version="1.1" viewBox="0 0 18 17">
  <!-- Generator: Adobe Illustrator 29.2.1, SVG Export Plug-In . SVG Version: 2.1.0 Build 116)  -->
  <defs>
    <style>
      .st0 {
        fill: #0c331f;
      }
    </style>
  </defs>
  <path class="st0" d="M4.7.5C2.3.5,0,2.1,0,5.1s3.9,6.9,8.4,11.1c.2.2.4.3.6.3s.5,0,.6-.3c4.5-4.3,8.4-7.8,8.4-11.1S15.7.5,13.3.5s-3.3,1.2-4.3,2.7C8,1.7,6.4.5,4.7.5ZM4.7,1.8c1.8,0,2.9,1.2,3.7,2.4.1.2.3.3.5.3.2,0,.4-.1.6-.3.9-1.2,2-2.4,3.7-2.4s3.4,1,3.4,3.3-2.6,5-7.6,9.9C4.1,10.3,1.4,7.5,1.4,5.1s.4-1.8,1-2.4c.6-.5,1.5-.8,2.3-.8Z"/>
</svg>